<svg width="421" height="62" viewBox="0 0 421 62" fill="none" xmlns="http://www.w3.org/2000/svg">
<path d="M402.536 61.4671H369.323C368.16 61.4671 367.44 60.2004 368.035 59.201L384.603 31.3646C384.881 30.8982 384.884 30.3181 384.613 29.8481L369.109 2.9942C368.532 1.99466 369.253 0.745239 370.407 0.745239H401.706C402.232 0.745239 402.719 1.02097 402.99 1.47179L420.069 29.8673C420.345 30.3264 420.355 30.898 420.095 31.3666L403.847 60.6944C403.583 61.1712 403.081 61.4671 402.536 61.4671Z" fill="#38BDF8"/>
<path d="M385.052 30.7317C385.169 30.4358 382.361 35.0499 380.233 38.6945L402.227 60.9636C402.858 61.6029 403.885 60.8018 403.404 60.0431C397.069 50.0629 384.966 30.9502 385.052 30.7317Z" fill="#236D8E"/>
<path d="M1.11907 46.6668C0.790856 46.6668 0.522315 46.5624 0.31345 46.3535C0.104585 46.1447 0.000152588 45.8761 0.000152588 45.5479V16.456C0.000152588 16.1278 0.104585 15.8593 0.31345 15.6504C0.522315 15.4415 0.790856 15.3371 1.11907 15.3371H6.89269C7.22091 15.3371 7.48945 15.4415 7.69832 15.6504C7.90718 15.8593 8.01161 16.1278 8.01161 16.456V27.2424H19.0665V16.456C19.0665 16.1278 19.171 15.8593 19.3798 15.6504C19.5887 15.4415 19.8572 15.3371 20.1855 15.3371H25.9591C26.2873 15.3371 26.5558 15.4415 26.7647 15.6504C26.9736 15.8593 27.078 16.1278 27.078 16.456V45.5479C27.078 45.8761 26.9736 46.1447 26.7647 46.3535C26.5558 46.5624 26.2873 46.6668 25.9591 46.6668H20.1855C19.8572 46.6668 19.5887 46.5624 19.3798 46.3535C19.171 46.1447 19.0665 45.8761 19.0665 45.5479V34.4035H8.01161V45.5479C8.01161 45.8761 7.90718 46.1447 7.69832 46.3535C7.48945 46.5624 7.22091 46.6668 6.89269 46.6668H1.11907Z" fill="#1F2937"/>
<path d="M33.573 46.6668C33.2448 46.6668 32.9762 46.5624 32.7673 46.3535C32.5585 46.1447 32.454 45.8761 32.454 45.5479V16.456C32.454 16.1278 32.5585 15.8593 32.7673 15.6504C32.9762 15.4415 33.2448 15.3371 33.573 15.3371H39.5704C39.8986 15.3371 40.1671 15.4415 40.376 15.6504C40.5849 15.8593 40.6893 16.1278 40.6893 16.456V45.5479C40.6893 45.8761 40.5849 46.1447 40.376 46.3535C40.1671 46.5624 39.8986 46.6668 39.5704 46.6668H33.573Z" fill="#1F2937"/>
<path d="M47.1888 46.6668C46.8606 46.6668 46.5921 46.5624 46.3832 46.3535C46.1743 46.1447 46.0699 45.8761 46.0699 45.5479V16.456C46.0699 16.1278 46.1743 15.8593 46.3832 15.6504C46.5921 15.4415 46.8606 15.3371 47.1888 15.3371H53.0967C53.3951 15.3371 53.6487 15.4415 53.8576 15.6504C54.0963 15.8593 54.2156 16.1278 54.2156 16.456V39.9086H67.7322C68.0604 39.9086 68.3289 40.0279 68.5378 40.2666C68.7765 40.4755 68.8958 40.744 68.8958 41.0722V45.5479C68.8958 45.8761 68.7765 46.1447 68.5378 46.3535C68.3289 46.5624 68.0604 46.6668 67.7322 46.6668H47.1888Z" fill="#1F2937"/>
<path d="M82.7113 47.1144C81.0106 47.1144 79.3844 46.9055 77.8329 46.4878C76.3111 46.0402 74.9535 45.3838 73.76 44.5185C72.5665 43.6532 71.6117 42.579 70.8956 41.296C70.2093 40.013 69.8363 38.5211 69.7766 36.8203C69.7766 36.5518 69.8661 36.328 70.0452 36.149C70.2242 35.9401 70.4629 35.8357 70.7613 35.8357H76.8034C77.2212 35.8357 77.5345 35.9401 77.7433 36.149C77.982 36.3579 78.176 36.6711 78.3252 37.0889C78.4744 37.9243 78.7578 38.6106 79.1756 39.1477C79.5933 39.6549 80.1154 40.0428 80.742 40.3114C81.3985 40.5501 82.1295 40.6694 82.9351 40.6694C84.427 40.6694 85.5758 40.192 86.3814 39.2372C87.187 38.2526 87.5898 36.8203 87.5898 34.9406V22.0059H73.0886C72.7903 22.0059 72.5217 21.9014 72.283 21.6926C72.0741 21.4837 71.9697 21.2151 71.9697 20.8869V16.456C71.9697 16.1278 72.0741 15.8593 72.283 15.6504C72.5217 15.4415 72.7903 15.3371 73.0886 15.3371H94.7509C95.0791 15.3371 95.3477 15.4415 95.5565 15.6504C95.7952 15.8593 95.9146 16.1278 95.9146 16.456V35.1643C95.9146 37.7602 95.3477 39.9533 94.2138 41.7436C93.08 43.504 91.5284 44.8467 89.5591 45.7717C87.5898 46.6668 85.3072 47.1144 82.7113 47.1144Z" fill="#1F2937"/>
<path d="M98.479 46.6668C98.2403 46.6668 98.0165 46.5773 97.8076 46.3983C97.6286 46.1894 97.5391 45.9656 97.5391 45.7269C97.5391 45.5777 97.554 45.4435 97.5839 45.3241L108.102 16.5903C108.191 16.2621 108.37 15.9786 108.639 15.7399C108.937 15.4714 109.34 15.3371 109.847 15.3371H116.471C116.978 15.3371 117.366 15.4714 117.635 15.7399C117.933 15.9786 118.127 16.2621 118.217 16.5903L128.69 45.3241C128.749 45.4435 128.779 45.5777 128.779 45.7269C128.779 45.9656 128.675 46.1894 128.466 46.3983C128.287 46.5773 128.063 46.6668 127.795 46.6668H122.29C121.842 46.6668 121.499 46.5624 121.26 46.3535C121.051 46.1148 120.917 45.906 120.857 45.7269L119.112 41.1617H107.162L105.461 45.7269C105.401 45.906 105.267 46.1148 105.058 46.3535C104.849 46.5624 104.491 46.6668 103.984 46.6668H98.479ZM108.997 34.7168H117.322L113.114 22.901L108.997 34.7168Z" fill="#1F2937"/>
<path d="M140.699 46.6668C140.371 46.6668 140.117 46.5773 139.938 46.3983C139.759 46.1894 139.67 45.9358 139.67 45.6374V16.3665C139.67 16.0681 139.759 15.8294 139.938 15.6504C140.117 15.4415 140.371 15.3371 140.699 15.3371H143.071C143.369 15.3371 143.608 15.4415 143.787 15.6504C143.966 15.8294 144.056 16.0681 144.056 16.3665V42.773H158.96C159.288 42.773 159.542 42.8774 159.721 43.0863C159.9 43.2653 159.989 43.5189 159.989 43.8471V45.6374C159.989 45.9358 159.9 46.1894 159.721 46.3983C159.542 46.5773 159.288 46.6668 158.96 46.6668H140.699Z" fill="#1F2937"/>
<path d="M174.791 47.1144C172.254 47.1144 170.076 46.6817 168.256 45.8164C166.436 44.9213 165.034 43.5637 164.049 41.7436C163.064 39.8936 162.512 37.5812 162.393 34.8063C162.363 33.4934 162.348 32.2402 162.348 31.0467C162.348 29.8234 162.363 28.5553 162.393 27.2424C162.512 24.4973 163.079 22.2147 164.094 20.3946C165.138 18.5447 166.57 17.1721 168.39 16.277C170.24 15.352 172.374 14.8895 174.791 14.8895C177.237 14.8895 179.371 15.352 181.191 16.277C183.041 17.1721 184.488 18.5447 185.532 20.3946C186.577 22.2147 187.144 24.4973 187.233 27.2424C187.293 28.5553 187.323 29.8234 187.323 31.0467C187.323 32.2402 187.293 33.4934 187.233 34.8063C187.144 37.5812 186.592 39.8936 185.577 41.7436C184.592 43.5637 183.19 44.9213 181.37 45.8164C179.55 46.6817 177.357 47.1144 174.791 47.1144ZM174.791 43.3101C177.088 43.3101 178.953 42.6238 180.385 41.2513C181.847 39.8787 182.638 37.6558 182.757 34.5825C182.817 33.2398 182.847 32.0463 182.847 31.002C182.847 29.9278 182.817 28.7343 182.757 27.4214C182.698 25.3626 182.31 23.6917 181.594 22.4087C180.907 21.1256 179.982 20.1857 178.819 19.589C177.655 18.9922 176.312 18.6939 174.791 18.6939C173.329 18.6939 172.016 18.9922 170.852 19.589C169.688 20.1857 168.749 21.1256 168.032 22.4087C167.346 23.6917 166.958 25.3626 166.869 27.4214C166.839 28.7343 166.824 29.9278 166.824 31.002C166.824 32.0463 166.839 33.2398 166.869 34.5825C166.988 37.6558 167.779 39.8787 169.241 41.2513C170.703 42.6238 172.553 43.3101 174.791 43.3101Z" fill="#1F2937"/>
<path d="M204.319 47.1144C201.694 47.1144 199.456 46.6221 197.606 45.6374C195.786 44.6528 194.383 43.2653 193.399 41.475C192.444 39.6848 191.907 37.5812 191.787 35.1643C191.758 33.8515 191.743 32.464 191.743 31.002C191.743 29.5101 191.758 28.0928 191.787 26.7501C191.907 24.3332 192.444 22.2446 193.399 20.4841C194.383 18.7237 195.801 17.3511 197.651 16.3665C199.5 15.3819 201.723 14.8895 204.319 14.8895C206.438 14.8895 208.273 15.1879 209.824 15.7847C211.376 16.3814 212.644 17.1423 213.629 18.0673C214.643 18.9624 215.389 19.9023 215.867 20.8869C216.374 21.8716 216.642 22.7369 216.672 23.4828C216.702 23.7514 216.627 23.9751 216.448 24.1542C216.269 24.3034 216.031 24.378 215.732 24.378H213.092C212.793 24.378 212.569 24.3183 212.42 24.1989C212.301 24.0796 212.182 23.8707 212.062 23.5723C211.794 22.7966 211.346 22.0357 210.72 21.2897C210.123 20.5438 209.302 19.9321 208.258 19.4547C207.243 18.9475 205.931 18.6939 204.319 18.6939C201.962 18.6939 200.052 19.3354 198.59 20.6184C197.158 21.9014 196.382 24.0199 196.263 26.9739C196.174 29.6294 196.174 32.285 196.263 34.9406C196.382 37.9243 197.173 40.0727 198.635 41.3855C200.097 42.6686 202.007 43.3101 204.364 43.3101C205.945 43.3101 207.348 43.0266 208.571 42.4597C209.824 41.8629 210.809 40.9529 211.525 39.7295C212.241 38.5062 212.599 36.9546 212.599 35.0748V33.195H205.886C205.587 33.195 205.334 33.1055 205.125 32.9265C204.946 32.7176 204.856 32.4491 204.856 32.1209V30.6887C204.856 30.3604 204.946 30.1068 205.125 29.9278C205.334 29.7189 205.587 29.6145 205.886 29.6145H216.001C216.329 29.6145 216.583 29.7189 216.762 29.9278C216.941 30.1068 217.03 30.3604 217.03 30.6887V34.9853C217.03 37.432 216.523 39.5654 215.508 41.3855C214.524 43.2056 213.077 44.6229 211.167 45.6374C209.257 46.6221 206.975 47.1144 204.319 47.1144Z" fill="#1F2937"/>
<path d="M223.55 46.6668C223.221 46.6668 222.968 46.5773 222.789 46.3983C222.61 46.1894 222.52 45.9358 222.52 45.6374V16.3665C222.52 16.0681 222.61 15.8294 222.789 15.6504C222.968 15.4415 223.221 15.3371 223.55 15.3371H225.922C226.22 15.3371 226.459 15.4415 226.638 15.6504C226.847 15.8294 226.951 16.0681 226.951 16.3665V45.6374C226.951 45.9358 226.847 46.1894 226.638 46.3983C226.459 46.5773 226.22 46.6668 225.922 46.6668H223.55Z" fill="#1F2937"/>
<path d="M243.934 47.1144C241.338 47.1144 239.16 46.7265 237.399 45.9507C235.639 45.1451 234.281 44.1157 233.326 42.8625C232.401 41.5795 231.909 40.2219 231.849 38.7896C231.849 38.5509 231.939 38.3421 232.118 38.163C232.327 37.9542 232.565 37.8497 232.834 37.8497H235.116C235.475 37.8497 235.743 37.9393 235.922 38.1183C236.101 38.2973 236.22 38.5062 236.28 38.7449C236.429 39.461 236.787 40.1771 237.354 40.8932C237.951 41.5795 238.772 42.1613 239.816 42.6387C240.89 43.0863 242.263 43.3101 243.934 43.3101C246.5 43.3101 248.379 42.8625 249.573 41.9674C250.796 41.0424 251.408 39.819 251.408 38.2973C251.408 37.253 251.08 36.4175 250.423 35.7909C249.797 35.1345 248.827 34.5527 247.514 34.0454C246.201 33.5382 244.5 32.9862 242.412 32.3894C240.234 31.7628 238.428 31.0766 236.996 30.3306C235.564 29.5847 234.49 28.6597 233.774 27.5557C233.088 26.4517 232.744 25.0493 232.744 23.3486C232.744 21.7373 233.177 20.3051 234.042 19.0519C234.908 17.7689 236.146 16.7544 237.757 16.0084C239.398 15.2625 241.382 14.8895 243.71 14.8895C245.56 14.8895 247.171 15.1431 248.544 15.6504C249.946 16.1278 251.11 16.7842 252.035 17.6197C252.96 18.4253 253.661 19.3055 254.138 20.2603C254.616 21.1853 254.869 22.0954 254.899 22.9905C254.899 23.1994 254.824 23.4082 254.675 23.6171C254.526 23.7961 254.287 23.8856 253.959 23.8856H251.587C251.378 23.8856 251.154 23.826 250.916 23.7066C250.707 23.5873 250.543 23.3635 250.423 23.0353C250.244 21.8119 249.558 20.7825 248.364 19.947C247.171 19.1116 245.619 18.6939 243.71 18.6939C241.77 18.6939 240.189 19.0668 238.966 19.8128C237.772 20.5587 237.175 21.7224 237.175 23.3038C237.175 24.3183 237.459 25.1687 238.026 25.8549C238.593 26.5114 239.488 27.0932 240.711 27.6004C241.934 28.1077 243.531 28.6448 245.5 29.2117C247.887 29.8681 249.841 30.5693 251.363 31.3153C252.885 32.0314 254.004 32.9414 254.72 34.0454C255.466 35.1196 255.839 36.507 255.839 38.2078C255.839 40.0876 255.347 41.6988 254.362 43.0415C253.377 44.3544 251.99 45.3689 250.2 46.085C248.439 46.7713 246.35 47.1144 243.934 47.1144Z" fill="#1F2937"/>
<path d="M268.338 46.6668C268.039 46.6668 267.786 46.5773 267.577 46.3983C267.398 46.1894 267.308 45.9358 267.308 45.6374V19.3204H258.715C258.416 19.3204 258.163 19.2309 257.954 19.0519C257.775 18.843 257.685 18.5894 257.685 18.291V16.4113C257.685 16.083 257.775 15.8294 257.954 15.6504C258.163 15.4415 258.416 15.3371 258.715 15.3371H280.288C280.616 15.3371 280.869 15.4415 281.048 15.6504C281.257 15.8294 281.362 16.083 281.362 16.4113V18.291C281.362 18.5894 281.257 18.843 281.048 19.0519C280.869 19.2309 280.616 19.3204 280.288 19.3204H271.739V45.6374C271.739 45.9358 271.635 46.1894 271.426 46.3983C271.247 46.5773 270.993 46.6668 270.665 46.6668H268.338Z" fill="#1F2937"/>
<path d="M286.513 46.6668C286.185 46.6668 285.931 46.5773 285.752 46.3983C285.573 46.1894 285.484 45.9358 285.484 45.6374V16.3665C285.484 16.0681 285.573 15.8294 285.752 15.6504C285.931 15.4415 286.185 15.3371 286.513 15.3371H288.885C289.184 15.3371 289.423 15.4415 289.602 15.6504C289.81 15.8294 289.915 16.0681 289.915 16.3665V45.6374C289.915 45.9358 289.81 46.1894 289.602 46.3983C289.423 46.5773 289.184 46.6668 288.885 46.6668H286.513Z" fill="#1F2937"/>
<path d="M308.106 47.1144C305.361 47.1144 303.078 46.6071 301.258 45.5927C299.468 44.5782 298.11 43.1609 297.185 41.3408C296.26 39.5207 295.753 37.4022 295.663 34.9853C295.633 33.762 295.619 32.4491 295.619 31.0467C295.619 29.6443 295.633 28.3016 295.663 27.0186C295.753 24.6017 296.26 22.4833 297.185 20.6631C298.11 18.843 299.468 17.4257 301.258 16.4113C303.078 15.3968 305.361 14.8895 308.106 14.8895C310.164 14.8895 311.97 15.173 313.521 15.7399C315.073 16.3068 316.356 17.0677 317.37 18.0225C318.415 18.9773 319.205 20.0515 319.742 21.245C320.28 22.4087 320.578 23.6171 320.638 24.8703C320.667 25.1388 320.578 25.3626 320.369 25.5416C320.19 25.7207 319.966 25.8102 319.698 25.8102H317.236C316.968 25.8102 316.729 25.7356 316.52 25.5864C316.341 25.4372 316.207 25.1687 316.117 24.7808C315.61 22.4534 314.655 20.8571 313.253 19.9918C311.88 19.1265 310.15 18.6939 308.061 18.6939C305.674 18.6939 303.779 19.3801 302.377 20.7527C300.974 22.0954 300.214 24.2586 300.094 27.2424C300.005 29.6891 300.005 32.1955 300.094 34.7615C300.214 37.7453 300.974 39.9235 302.377 41.296C303.779 42.6387 305.674 43.3101 308.061 43.3101C310.15 43.3101 311.88 42.8774 313.253 42.0121C314.655 41.1468 315.61 39.5505 316.117 37.2231C316.207 36.8353 316.341 36.5667 316.52 36.4175C316.729 36.2683 316.968 36.1937 317.236 36.1937H319.698C319.966 36.1937 320.19 36.2833 320.369 36.4623C320.578 36.6413 320.667 36.8651 320.638 37.1336C320.578 38.3868 320.28 39.6102 319.742 40.8037C319.205 41.9674 318.415 43.0266 317.37 43.9814C316.356 44.9362 315.073 45.6971 313.521 46.264C311.97 46.8309 310.164 47.1144 308.106 47.1144Z" fill="#1F2937"/>
<path d="M335.811 47.1144C333.215 47.1144 331.037 46.7265 329.276 45.9507C327.516 45.1451 326.158 44.1157 325.203 42.8625C324.278 41.5795 323.786 40.2219 323.726 38.7896C323.726 38.5509 323.816 38.3421 323.995 38.163C324.204 37.9542 324.443 37.8497 324.711 37.8497H326.994C327.352 37.8497 327.62 37.9393 327.799 38.1183C327.978 38.2973 328.098 38.5062 328.157 38.7449C328.307 39.461 328.665 40.1771 329.232 40.8932C329.828 41.5795 330.649 42.1613 331.693 42.6387C332.767 43.0863 334.14 43.3101 335.811 43.3101C338.377 43.3101 340.257 42.8625 341.45 41.9674C342.673 41.0424 343.285 39.819 343.285 38.2973C343.285 37.253 342.957 36.4175 342.301 35.7909C341.674 35.1345 340.704 34.5527 339.391 34.0454C338.078 33.5382 336.378 32.9862 334.289 32.3894C332.111 31.7628 330.306 31.0766 328.873 30.3306C327.441 29.5847 326.367 28.6597 325.651 27.5557C324.965 26.4517 324.622 25.0493 324.622 23.3486C324.622 21.7373 325.054 20.3051 325.92 19.0519C326.785 17.7689 328.023 16.7544 329.634 16.0084C331.275 15.2625 333.26 14.8895 335.587 14.8895C337.437 14.8895 339.048 15.1431 340.421 15.6504C341.823 16.1278 342.987 16.7842 343.912 17.6197C344.837 18.4253 345.538 19.3055 346.015 20.2603C346.493 21.1853 346.746 22.0954 346.776 22.9905C346.776 23.1994 346.702 23.4082 346.552 23.6171C346.403 23.7961 346.165 23.8856 345.836 23.8856H343.464C343.255 23.8856 343.032 23.826 342.793 23.7066C342.584 23.5873 342.42 23.3635 342.301 23.0353C342.121 21.8119 341.435 20.7825 340.242 19.947C339.048 19.1116 337.497 18.6939 335.587 18.6939C333.648 18.6939 332.066 19.0668 330.843 19.8128C329.649 20.5587 329.053 21.7224 329.053 23.3038C329.053 24.3183 329.336 25.1687 329.903 25.8549C330.47 26.5114 331.365 27.0932 332.588 27.6004C333.812 28.1077 335.408 28.6448 337.377 29.2117C339.764 29.8681 341.719 30.5693 343.24 31.3153C344.762 32.0314 345.881 32.9414 346.597 34.0454C347.343 35.1196 347.716 36.507 347.716 38.2078C347.716 40.0876 347.224 41.6988 346.239 43.0415C345.254 44.3544 343.867 45.3689 342.077 46.085C340.316 46.7713 338.228 47.1144 335.811 47.1144Z" fill="#1F2937"/>
</svg>
